<svg viewBox="0 0 100 100" xmlns="http://www.w3.org/2000/svg" width="100" height="100">
  <!-- Background circle -->
  <defs>
    <linearGradient id="logoGradient" x1="0%" y1="0%" x2="100%" y2="100%">
      <stop offset="0%" style="stop-color:#d64545;stop-opacity:1" />
      <stop offset="100%" style="stop-color:#ff8a5b;stop-opacity:1" />
    </linearGradient>
  </defs>
  
  <!-- Main circle background -->
  <circle cx="50" cy="50" r="48" fill="url(#logoGradient)" />
  
  <!-- Spoon shape on left -->
  <path d="M 35 25 Q 30 25 30 30 L 30 50 Q 30 65 40 68 L 42 68 Q 50 65 50 50 L 50 30 Q 50 25 45 25 Z" fill="white" opacity="0.9" />
  
  <!-- Fork shape on right -->
  <path d="M 55 30 L 55 50 Q 55 65 65 68 L 68 68 L 70 50 L 70 30 M 60 30 L 60 55 M 65 30 L 65 55" stroke="white" stroke-width="2.5" fill="none" opacity="0.9" stroke-linecap="round" stroke-linejoin="round" />
  
  <!-- Decorative leaf accent -->
  <ellipse cx="50" cy="75" rx="8" ry="6" fill="white" opacity="0.7" transform="rotate(-30 50 75)" />
  <ellipse cx="50" cy="75" rx="8" ry="6" fill="white" opacity="0.7" transform="rotate(30 50 75)" />
</svg>
